<?xml version="1.0" encoding="UTF-8"?><svg id="Livello_2" xmlns="http://www.w3.org/2000/svg" viewBox="0 0 119.03 139.74"><g id="Livello_2-2"><path d="m101.79,0c1.28.59,2.69,1.01,3.82,1.81,2.08,1.48,2.98,3.63,3.13,6.23.29,5.13-3.5,8.27-7.29,8.81-3.62.52-7.67-1.68-9.06-5.81-1.44-4.28.94-9.58,6.2-10.84.17-.04.34-.13.51-.2.9,0,1.79,0,2.69,0Z" style="fill:#cdcccc;"/><path d="m7.81,47.34c1.65-4.57,4.02-8.77,6.86-12.69,5.48-7.55,12.45-13.34,20.83-17.4,4.86-2.36,9.95-4.09,15.35-4.75,2.86-.35,5.74-.76,8.61-.72,3.62.05,7.23.32,10.82,1.03,10.56,2.08,19.76,6.73,27.59,14.1,5.88,5.53,10.33,12.07,13.38,19.55.14.34.26.69.47,1.27-1.58-1.5-2.9-2.88-4.35-4.11-5.21-4.42-11.04-7.83-17.53-10-3.92-1.31-7.88-2.54-11.9-3.52-2.8-.68-5.71-.93-8.59-1.27-1.98-.23-3.98-.27-5.98-.4-.95-.06-1.9-.18-2.84-.18-4.6.01-9.18.31-13.75.91-6.12.8-12.04,2.3-17.78,4.53-7.93,3.07-15.09,7.35-20.89,13.69-.04.04-.1.07-.16.1-.04-.04-.09-.09-.13-.12Z" style="fill:#4cbaeb;"/><path d="m111.46,86.04c-2.63,7.31-6.71,13.68-12.14,19.17-8.06,8.14-17.74,13.34-28.98,15.58-13.23,2.64-25.75.56-37.52-5.91-11.91-6.55-20.21-16.33-25.27-29.11.26.18.41.24.52.36,4.51,4.99,9.97,8.65,15.98,11.57,5.68,2.76,11.66,4.68,17.82,5.96,2.74.57,5.53.94,8.31,1.16,3.71.29,7.43.44,11.15.46,2.84.01,5.7-.11,8.51-.46,11.86-1.47,23.11-4.75,33.13-11.52,2.95-1.99,5.67-4.26,8.06-6.91.12-.13.28-.23.41-.35Z" style="fill:#4cbaeb;"/><path d="m28.85,129.09c-.04,6.18-4.73,10.68-10.61,10.65-6.37-.03-10.53-5.18-10.58-10.64-.05-5.51,4.65-10.67,10.58-10.62,6.09.05,10.61,4.65,10.61,10.6Z" style="fill:#cdcccc;"/><path d="m39.35,74v9.49h-3.32v-25.44h2.71c.08.89.15,1.78.24,2.83,1.24-1.5,2.47-2.75,4.29-3.1,4.61-.87,8.18.82,9.54,5.67.74,2.61.58,5.24-.36,7.81-1.09,2.99-3.86,4.93-6.98,5.18-2.43.19-4.41-.6-6.13-2.45Zm-.23-6.85c.09.78.16,1.57.28,2.35.41,2.69,2.43,4.2,4.67,4.41,2.22.2,4.48-1.15,5.31-3.53.82-2.35.83-4.71-.09-7.02-1.28-3.19-4.92-4.03-7.43-2.27-2.1,1.47-2.81,3.58-2.74,6.06Z" style="fill:#cdcccc;"/><path d="m105.31,67.66c-1.88,0-3.6,0-5.32,0-2.21,0-4.41.03-6.62-.02-.82-.02-.91.27-.88,1.01.11,2.68,2.79,5.4,5.89,5.26,1.74-.08,3.47-.45,5.33-.7.15.56.35,1.34.58,2.21-2.61.9-5.2,1.55-7.97,1.02-3.49-.66-5.8-2.68-6.82-6.06-1.12-3.68-.03-8.54,3.04-11.06,2.57-2.1,6.14-2.31,8.92-.86,2.36,1.23,3.26,3.51,3.6,6.02.13,1.02.16,2.06.25,3.18Zm-12.89-2.75c.05.05.11.1.16.15,3.13,0,6.27,0,9.4,0,.05-.05.11-.1.16-.15.42-3.25-2.39-5.35-4.8-5.15-2.81.23-4.62,2.53-4.93,5.15Z" style="fill:#cdcccc;"/><path d="m55.6,58.03h3.71c1.68,4.63,3.36,9.27,5.07,13.98.31-.91.62-1.82.93-2.73,1.2-3.54,2.42-7.08,3.59-10.62.15-.47.32-.69.84-.67.92.04,1.85.01,2.89.01-.35.95-.65,1.83-1.01,2.69-2.45,5.96-4.8,11.97-7.41,17.85-1.28,2.89-3.57,4.95-6.87,5.8-.3-.95-.59-1.86-.89-2.79,2.17-.74,3.74-2.15,5.06-3.93,1.01-1.36.96-2.66.34-4.16-2.13-5.11-4.17-10.26-6.26-15.43Z" style="fill:#cdcccc;"/><path d="m26.48,57.82h3.27c.02.27.05.55.05.82,0,3.84.02,7.68,0,11.52,0,1.14-.16,2.28-.17,3.41,0,.66.18,1.32.15,1.98-.01.24-.39.62-.65.66-.69.09-1.4.03-2.27.03-.06-.94-.12-1.84-.18-2.82-.59.56-1.11,1.17-1.74,1.64-3.91,2.88-9.11,1.61-10.29-3.5-.22-.95-.26-1.95-.27-2.93-.03-3.36-.01-6.72-.01-10.08,0-.15.03-.31.04-.51h3.29c0,.3,0,.61,0,.91,0,3.45,0,6.91.02,10.36,0,2.3,1.83,4.45,3.94,4.39,2.04-.06,4.23-1.3,4.68-3.83.1-.56.13-1.14.14-1.71.01-3.42,0-6.84,0-10.35Z" style="fill:#cdcccc;"/><path d="m3.68,19.33c.02-3.1,2.47-6.08,6.04-6.06,3.49.02,6.16,2.23,6.18,6.08.02,3.32-2.16,5.95-6.15,6.16-3.23.16-6.07-2.86-6.07-6.18Z" style="fill:#cdcccc;"/><path d="m86,73.52c.02.47.04.78.05,1.1.04,1.46.05,1.57-1.38,1.74-1.35.15-2.77.36-4.05-.46-1.9-1.22-2.39-3.09-2.4-5.17,0-3.36,0-6.71,0-10.22-.69,0-1.38-.04-2.06.01-.68.05-.92-.23-.87-.89.04-.5,0-1.01,0-1.61h2.85v-4.53c1.13-.27,2.22-.52,3.42-.81v5.3h4.56c.05.16.1.25.1.33-.02,2.63.37,2.13-2.13,2.18-.79.02-1.59,0-2.39,0-.05.13-.11.21-.11.3,0,3.39-.02,6.78.02,10.17.03,2.57,1.75,3.07,3.65,2.71.21-.04.42-.08.73-.15Z" style="fill:#cdcccc;"/><path d="m5.03,57.84h3.21c0,.31,0,.61,0,.92,0,5.11.03,10.23-.02,15.34-.02,1.97-.09,3.94-1.06,5.78-1.34,2.54-3.89,4.03-6.88,3.81-.1-.76-.19-1.53-.29-2.35.61-.12,1.17-.18,1.7-.36,1.96-.66,2.93-2.1,2.95-4.22.07-6.25.15-12.51.23-18.76.05-.05.1-.11.15-.16Z" style="fill:#cdcccc;"/><path d="m110.19,58.03h2.87v3.2c1.22-2.52,3.13-3.82,5.97-3.77v3.07c-.9.14-1.85.13-2.66.46-1.91.8-2.83,2.38-2.85,4.42-.04,3.48-.01,6.97-.01,10.53h-3.32v-17.92Z" style="fill:#cdcccc;"/><path d="m7.94,47.46c-.06.03-.11.06-.17.09.01-.07.03-.14.04-.21.05.04.09.08.13.12Z" style="fill:#f28b3c;"/><path d="m5.03,57.84c-.05.05-.1.11-.15.16.05-.05.1-.11.15-.16Z" style="fill:#807e7e;"/><path d="m92.42,64.91c.05.05.11.1.16.15-.05-.05-.11-.1-.16-.15Z" style="fill:#e6e5e5;"/><path d="m101.98,65.06l.16-.15-.16.15Z" style="fill:#e6e5e5;"/></g></svg>