<?xml version="1.0" encoding="UTF-8"?><svg id="Livello_2" xmlns="http://www.w3.org/2000/svg" viewBox="0 0 143.93 145.65"><g id="Livello_2-2"><path d="m83.14,145.65h-7.42c-.02-.11-.03-.23-.04-.31-1.16-.11-2.32-.08-3.41-.35-1.96-.49-3.92-1.06-5.8-1.79-1.77-.68-3.48-1.54-5.15-2.44-2.01-1.09-3.92-2.35-5.59-3.93-1.01-.95-2.04-1.88-2.99-2.89-.36-.39-.68-.49-1.14-.43-1.69.24-3.38.6-5.07.67-2.5.1-5.01.14-7.51-.31-1.98-.36-3.93-.73-5.84-1.41-2.44-.87-4.8-1.88-7.05-3.18-3.55-2.06-6.71-4.57-9.42-7.67-2.11-2.42-3.85-5.08-5.28-7.93-1.26-2.51-2.3-5.12-2.83-7.9-.29-1.53-.64-3.06-.82-4.6-.15-1.28-.08-2.59-.1-3.89-.01-.7-.08-1.4-.03-2.09.07-.99.23-1.97.35-2.95.25-1.98.68-3.92,1.36-5.8.08-.22,0-.62-.15-.8-2.07-2.44-3.97-5-5.37-7.9-1.04-2.17-2.01-4.37-2.56-6.72-.4-1.74-.68-3.52-.92-5.29-.2-1.46-.33-2.94-.36-4.42-.03-1.11.14-2.23.23-3.35.07-.91.05-1.85.26-2.74.49-2.11,1.01-4.22,1.68-6.28.78-2.4,1.96-4.64,3.25-6.82,1.69-2.85,3.76-5.39,6.14-7.66,2.25-2.15,4.79-3.94,7.54-5.45,2.89-1.58,5.92-2.77,9.13-3.5.64-.15,1.27-.29,1.34-1.15.02-.28.2-.56.31-.83,1.17-2.92,2.6-5.7,4.45-8.25,1.54-2.13,3.22-4.15,5.21-5.86,1.62-1.39,3.35-2.69,5.17-3.81,1.88-1.16,3.89-2.14,5.9-3.07,1.79-.83,3.7-1.32,5.63-1.76,1.93-.44,3.87-.71,5.83-.76,1.67-.05,3.35.02,5.02.11,1.33.07,2.68.1,3.97.39,2.1.47,4.18,1.08,6.24,1.75,2.9.93,5.51,2.46,8.03,4.15,2.24,1.5,4.2,3.31,6.04,5.28.31.33.6.36,1.02.29,1.53-.25,3.07-.6,4.62-.64,2.08-.06,4.18.12,6.26.21,2.34.11,4.6.68,6.84,1.32,3.65,1.05,6.94,2.81,10.11,4.86,2.15,1.4,3.98,3.16,5.78,4.97,1.69,1.7,3.17,3.56,4.46,5.57,1.52,2.38,2.81,4.88,3.73,7.56.82,2.41,1.53,4.86,1.73,7.42.12,1.53.28,3.07.35,4.6.04.98-.05,1.97-.11,2.95-.06.91-.07,1.84-.26,2.73-.41,1.9-.92,3.78-1.37,5.68-.04.15,0,.38.1.51.95,1.23,1.98,2.41,2.87,3.69,2.59,3.69,4.36,7.76,5.35,12.15.31,1.38.47,2.8.69,4.2,0,.04,0,.08,0,.13,0,.12,0,.24,0,.36-.01.01-.04.03-.04.04,0,.03.03.06.04.09,0,.12,0,.24,0,.36-.12,1.05-.28,2.1.12,3.13.05.12.05.27.03.4-.15.95-.13,1.88.11,2.81-.08.17-.22.34-.24.52-.1.79-.19,1.58-.25,2.37-.18,2.44-.91,4.75-1.76,7-.7,1.85-1.54,3.67-2.52,5.39-.97,1.7-2.12,3.3-3.31,4.86-.85,1.11-1.85,2.12-2.86,3.1-1.2,1.16-2.39,2.34-3.74,3.3-2.28,1.62-4.64,3.14-7.24,4.21-1.33.55-2.7,1.01-4.08,1.45-.93.3-1.9.49-2.83.76-.18.05-.37.24-.44.41-.17.39-.27.82-.4,1.23-.79,2.38-1.96,4.57-3.26,6.7-1.9,3.1-4.33,5.75-7.01,8.19-2.31,2.1-4.95,3.75-7.71,5.18-2.22,1.15-4.55,2.03-7,2.63-1.81.45-3.62.82-5.49.95-.18.01-.36.23-.53.35Zm33.47-36.24c.1.07.23.22.28.2,1.76-.88,3.58-1.65,5.23-2.69,2.26-1.42,4.16-3.28,5.88-5.32,1.99-2.36,3.49-4.99,4.57-7.88,1.08-2.89,1.63-5.9,1.73-8.97.05-1.49-.12-3-.37-4.47-.31-1.76-.72-3.52-1.25-5.23-.73-2.36-1.94-4.51-3.36-6.53-1.46-2.08-3.12-3.96-5.12-5.57-2.11-1.69-4.47-2.95-6.78-4.3-3.03-1.77-6.09-3.49-9.13-5.24-3-1.73-5.98-3.48-8.97-5.22-2.52-1.46-5.04-2.93-7.58-4.34-.33-.18-.84-.11-1.24-.04-.29.05-.56.29-.83.45-3.13,1.83-6.25,3.65-9.37,5.48-.51.3-1,.64-1.52.97,3.24,1.9,6.4,3.76,9.57,5.62,2.94,1.73,5.88,3.46,8.84,5.17,3.59,2.07,7.21,4.1,10.8,6.17,1.89,1.09,3.71,2.3,5.64,3.31,1.95,1.02,2.97,2.5,2.97,4.71-.01,10.33-.01,20.67-.01,31,0,.83.02,1.66.02,2.49,0,.08,0,.16,0,.24ZM27.65,35.89c-.37.13-.6.2-.82.29-1.95.78-3.79,1.77-5.52,2.97-2.7,1.87-4.94,4.2-6.87,6.83-1.37,1.87-2.42,3.89-3.19,6.09-.76,2.18-1.34,4.4-1.51,6.68-.13,1.86-.06,3.76.12,5.62.16,1.6.5,3.19.94,4.74.93,3.29,2.53,6.26,4.61,8.99,1.47,1.92,3.2,3.55,5.1,5.02,2.83,2.2,6.1,3.66,9.13,5.53,1.8,1.12,3.69,2.09,5.52,3.15,2.61,1.52,5.2,3.08,7.82,4.59,3.06,1.77,6.15,3.5,9.21,5.27.47.27.85.26,1.29,0,1.37-.83,2.73-1.67,4.12-2.46,2.41-1.39,4.83-2.75,7.25-4.11.15-.09.34-.12.5-.18-.33-.31-.45-.38-.57-.45-2.03-1.15-4.07-2.29-6.09-3.46-2.77-1.6-5.53-3.22-8.3-4.82-3.06-1.77-6.14-3.51-9.21-5.27-3.67-2.11-7.33-4.26-11.01-6.36-1.7-.97-2.64-2.36-2.61-4.34.01-.87.08-1.74.08-2.61,0-9.32,0-18.64,0-27.96,0-1.21,0-2.42,0-3.74Zm-10.09,56.84c-.11,1.56-.3,2.95-.29,4.34.02,1.57.14,3.15.36,4.71.32,2.28.99,4.49,1.95,6.59,1.15,2.52,2.6,4.86,4.45,6.95,2.2,2.49,4.75,4.56,7.66,6.16,3.3,1.81,6.87,2.83,10.6,3.09,2.17.15,4.4.05,6.56-.26,3.08-.43,6.01-1.46,8.74-2.97,2.09-1.16,4.17-2.35,6.25-3.54,2.26-1.29,4.52-2.59,6.77-3.89,2.81-1.62,5.61-3.24,8.42-4.87,2.79-1.62,5.57-3.23,8.34-4.87.21-.12.41-.45.41-.69.02-3.89,0-7.78,0-11.67,0-.69,0-1.37,0-2.13-.17.06-.3.09-.41.15-1.27.7-2.55,1.38-3.81,2.11-3.84,2.22-7.68,4.46-11.52,6.68-3.52,2.03-7.04,4.05-10.56,6.08-3.09,1.79-6.16,3.62-9.27,5.38-1.37.78-2.9.9-4.28.13-3.23-1.79-6.38-3.71-9.57-5.56-3.18-1.84-6.36-3.67-9.54-5.5-2.98-1.72-5.96-3.44-8.94-5.15-.7-.4-1.42-.78-2.31-1.26Zm108.57-39.97c.07-.1.16-.17.17-.26.13-1.23.35-2.45.34-3.68-.01-1.59-.1-3.21-.37-4.78-.32-1.84-.76-3.67-1.35-5.44-.74-2.22-1.9-4.26-3.25-6.19-1.64-2.36-3.66-4.36-5.9-6.13-2-1.57-4.24-2.74-6.62-3.65-2.87-1.1-5.84-1.6-8.88-1.73-1.78-.08-3.55.04-5.33.32-2.58.41-5.06,1.15-7.37,2.31-2.73,1.37-5.36,2.93-8.02,4.43-2.28,1.3-4.53,2.65-6.8,3.96-3.03,1.75-6.08,3.48-9.1,5.24-2.27,1.31-4.5,2.68-6.79,3.96-.53.29-.64.61-.64,1.13.01,4.4,0,8.79.01,13.19,0,.11.03.22.05.35.13-.02.21-.02.28-.06,1.64-.94,3.27-1.87,4.91-2.82,2.41-1.39,4.8-2.8,7.21-4.19,2.56-1.48,5.14-2.93,7.7-4.41,2.21-1.28,4.41-2.58,6.62-3.86,2.82-1.63,5.67-3.23,8.48-4.89,1.58-.94,3.19-1.02,4.78-.2,1.48.75,2.87,1.67,4.3,2.51,1.82,1.07,3.65,2.13,5.48,3.2,2.16,1.26,4.31,2.51,6.47,3.77,1.84,1.07,3.69,2.13,5.54,3.2,2.68,1.56,5.36,3.12,8.09,4.71Zm-31.72,14.74c0,1.28,0,2.4,0,3.53.01,12.38.03,24.75.03,37.13,0,1.86-.72,3.34-2.39,4.3-2.5,1.44-4.99,2.88-7.48,4.32-2.2,1.27-4.39,2.53-6.59,3.8-2.29,1.32-4.58,2.65-6.87,3.98-1.76,1.02-3.52,2.03-5.28,3.05-1.2.7-2.39,1.41-3.61,2.13.03.04.09.11.16.17.42.34.82.71,1.26,1.02,2.63,1.88,5.46,3.36,8.62,4.12,1.74.42,3.51.82,5.29.95,1.71.12,3.44-.12,5.17-.19,1.79-.07,3.5-.54,5.19-1.08,4.11-1.31,7.71-3.5,10.78-6.52,3.27-3.21,5.59-7.02,6.94-11.42.84-2.76,1.26-5.58,1.28-8.44.03-9.36,0-18.72,0-28.08,0-1.68.01-3.36-.02-5.04,0-.24-.13-.57-.31-.69-1.22-.76-2.47-1.48-3.72-2.2-2.21-1.28-4.42-2.55-6.63-3.82-.6-.34-1.2-.66-1.83-1.01Zm-12.62-51.75c-.62-.47-1.18-.91-1.76-1.33-2.24-1.63-4.73-2.8-7.37-3.61-2.06-.64-4.16-1.11-6.35-1.11-1.93,0-3.87-.17-5.77.05-1.75.2-3.48.72-5.17,1.28-2.56.85-4.94,2.08-7.13,3.69-2.25,1.65-4.26,3.54-5.87,5.84-1.53,2.18-2.82,4.48-3.73,6.98-1.19,3.24-1.68,6.6-1.67,10.06.03,9.75,0,19.49.01,29.24,0,1.15,0,2.31.04,3.46,0,.22.16.52.33.63,1,.62,2.03,1.19,3.05,1.79,2.56,1.49,5.11,2.99,7.67,4.48.42.25.87.44,1.38.7,0-2.62,0-5.06,0-7.5,0-1.55.05-3.09.05-4.64,0-9.46,0-18.92-.03-28.37,0-1.86.74-3.3,2.3-4.27,1.37-.85,2.8-1.6,4.2-2.4,2.29-1.31,4.57-2.64,6.86-3.95,1.95-1.12,3.9-2.25,5.85-3.37,2.49-1.44,4.97-2.87,7.46-4.32,1.84-1.07,3.67-2.15,5.64-3.31Zm5.99,56.93s-.01,0-.02,0c0-2.92,0-5.83-.01-8.75,0-.19-.15-.47-.31-.57-1.24-.74-2.5-1.44-3.75-2.16-2.02-1.16-4.05-2.31-6.07-3.48-1.74-1-3.46-2.02-5.21-2.99-.22-.12-.62-.1-.85.02-1.2.64-2.37,1.35-3.55,2.02-3.61,2.06-7.2,4.14-10.83,6.17-.79.44-1.27.92-.95,1.87.04.13.02.28.02.42,0,5.37-.02,10.74-.01,16.11,0,.23.11.56.28.66.85.53,1.73.98,2.6,1.48,4.05,2.33,8.1,4.67,12.14,7.01.51.3.95.36,1.51.02,1.71-1.03,3.47-1.98,5.19-2.98,3.1-1.8,6.18-3.62,9.29-5.41.4-.23.56-.49.56-.96-.02-2.84,0-5.67,0-8.51Z" style="fill:#4cbaeb;"/><path d="m143.93,87.04s-.08,0-.11.01c-.24-.93-.26-1.87-.11-2.81.02-.13.02-.28-.03-.4-.4-1.03-.24-2.08-.12-3.13.13.08.25.16.38.24v6.08Z" style="fill:#4cbaeb;"/><path d="m116.6,109.17c0,.08,0,.16,0,.24,0-.08,0-.16,0-.24Z" style="fill:#4cbaeb;"/><path d="m143.53,79.75s0,.08,0,.13c0-.04,0-.08,0-.13Z" style="fill:#4cbaeb;"/><path d="m143.54,80.23s0,.08,0,.13c-.01-.03-.03-.06-.04-.09,0,0,.02-.02.04-.04Z" style="fill:#4cbaeb;"/></g></svg>