<?xml version="1.0" encoding="UTF-8"?><svg id="Livello_2" xmlns="http://www.w3.org/2000/svg" viewBox="0 0 104.05 151.72"><g id="Livello_1-2"><path d="m11.73,73.46c-1.75-.91-3.3-2.09-4.68-3.49-2.68-2.73-4.4-5.96-5.18-9.71-.31-1.51-.42-3.04-.31-4.55.29-3.99,1.71-7.56,4.31-10.64,1.73-2.05,3.9-3.52,6.2-4.84,15.92-9.18,31.82-18.39,47.73-27.58,5.12-2.96,10.22-5.93,15.35-8.85,2.12-1.21,4.42-1.92,6.87-2.12.35-.03.7-.11,1.04-.17.58,0,1.16,0,1.74,0,.68.09,1.36.16,2.03.28,1.75.3,3.44.8,5.02,1.61,5.63,2.9,9,7.52,10.14,13.72.46,2.53.32,5.08-.37,7.57-1.38,5.02-4.42,8.76-8.91,11.35-10.48,6.06-20.97,12.12-31.45,18.18-1.69.98-3.38,1.97-5.06,2.96-.14.07-.29.14-.42.22-6.83,3.95-13.65,7.89-20.48,11.84-2.25,1.3-4.5,2.62-6.77,3.89-2.28,1.28-4.76,1.95-7.35,2.15-1.27.1-2.56-.06-3.84-.16-1.34-.1-2.62-.52-3.88-.99-.58-.22-1.15-.44-1.73-.66Z" style="fill:none; stroke:#4cbaeb; stroke-miterlimit:10; stroke-width:3px;"/><path d="m102.47,93.65s.05,0,.08,0v2.44h-.04s-.04,0-.04,0c0-.82,0-1.63,0-2.45Z" style="fill:#f8e0a8; stroke:#4cbaeb; stroke-miterlimit:10; stroke-width:3px;"/><path d="m102.47,93.65c0,.82,0,1.63,0,2.45-.45,5.2-2.65,9.49-6.66,12.84-1.53,1.28-3.31,2.17-5.02,3.16-8.49,4.91-16.98,9.81-25.47,14.72-11.11,6.42-22.22,12.85-33.33,19.26-1.6.93-3.22,1.84-4.88,2.65-1.67.81-3.47,1.29-5.33,1.39-1.41.08-2.85.17-4.24-.02-3.52-.49-6.7-1.87-9.41-4.21-3.09-2.67-5.1-5.99-6.09-9.95-.45-1.78-.64-3.6-.47-5.4.64-6.61,3.89-11.58,9.67-14.87,12.08-6.87,24.17-13.75,36.25-20.63.09-.05.16-.11.25-.17.13-.06.26-.12.39-.19,8.89-5.06,17.79-10.11,26.67-15.19,3.01-1.73,6.23-2.65,9.7-2.61.96.01,1.92.1,2.86.27.96.18,1.91.47,2.84.77.83.27,1.63.63,2.44.95h0c.06.03.12.06.18.09,0,0,0,0,0,0,.02.02.04.05.05.07,3.01,1.6,5.32,3.92,7.09,6.81.96,1.58,1.72,3.25,2.1,5.06.19.91.29,1.84.43,2.75Z" style="fill:none; stroke:#4cbaeb; stroke-miterlimit:10; stroke-width:3px;"/><path d="m92.64,78.87c-.81-.32-1.61-.68-2.44-.95-.93-.3-1.88-.59-2.84-.77-.94-.17-1.9-.26-2.86-.27-3.47-.04-6.68.89-9.7,2.61-8.88,5.08-17.78,10.13-26.67,15.19-.12.07-.26.13-.39.19-2.06-1.23-4.12-2.47-6.19-3.69-7.87-4.67-15.74-9.34-23.61-14-2.05-1.22-4.11-2.43-6.17-3.64-.02-.01-.02-.05-.03-.07.58.22,1.15.44,1.73.66,1.26.47,2.53.89,3.88.99,1.28.1,2.57.25,3.84.16,2.58-.2,5.07-.87,7.35-2.15,2.27-1.27,4.52-2.59,6.77-3.89,6.83-3.94,13.65-7.89,20.48-11.84.14-.08.28-.15.42-.22,9.53,5.65,19.05,11.3,28.58,16.95,2.5,1.48,5.01,2.97,7.51,4.46.13.08.23.19.35.28Z" style="fill:#4cbaeb; stroke:#4cbaeb; stroke-miterlimit:10; stroke-width:3px;"/><path d="m92.81,78.96c-.06-.03-.12-.06-.18-.1.06.03.12.06.18.1Z" style="fill:#356bb1; stroke:#4cbaeb; stroke-miterlimit:10; stroke-width:3px;"/><path d="m92.85,79.02s-.04-.05-.05-.07c.02.02.04.05.05.07Z" style="fill:#356bb1; stroke:#4cbaeb; stroke-miterlimit:10; stroke-width:3px;"/></g></svg>